<svg xmlns="http://www.w3.org/2000/svg" xmlns:xlink="http://www.w3.org/1999/xlink" width="360" zoomAndPan="magnify" viewBox="0 0 270 40.499999" height="54" preserveAspectRatio="xMidYMid meet" version="1.0"><defs><g/></defs><g fill="#000000" fill-opacity="1"><g transform="translate(5.895443, 29.634144)"><g><path d="M 2.15625 0 L 5.476562 0 L 5.476562 -7.042969 C 5.476562 -9.054688 5.214844 -11.261719 5.050781 -13.15625 L 5.167969 -13.15625 L 6.945312 -9.386719 L 12.019531 0 L 15.574219 0 L 15.574219 -17.566406 L 12.257812 -17.566406 L 12.257812 -10.550781 C 12.257812 -8.558594 12.542969 -6.234375 12.707031 -4.410156 L 12.589844 -4.410156 L 10.835938 -8.203125 L 5.738281 -17.566406 L 2.15625 -17.566406 Z M 2.15625 0 "/></g></g></g><g fill="#000000" fill-opacity="1"><g transform="translate(23.652257, 29.634144)"><g><path d="M 9.316406 0.332031 C 11.59375 0.332031 13.464844 -0.570312 14.910156 -2.253906 L 13.0625 -4.433594 C 12.113281 -3.414062 10.953125 -2.703125 9.433594 -2.703125 C 6.660156 -2.703125 4.859375 -5.003906 4.859375 -8.820312 C 4.859375 -12.589844 6.851562 -14.863281 9.507812 -14.863281 C 10.835938 -14.863281 11.855469 -14.25 12.753906 -13.394531 L 14.578125 -15.625 C 13.441406 -16.808594 11.664062 -17.875 9.433594 -17.875 C 5.003906 -17.875 1.28125 -14.484375 1.28125 -8.699219 C 1.28125 -2.84375 4.882812 0.332031 9.316406 0.332031 Z M 9.316406 0.332031 "/></g></g></g><g fill="#000000" fill-opacity="1"><g transform="translate(39.227999, 29.634144)"><g><path d="M 7.398438 0.332031 C 11.449219 0.332031 13.84375 -2.109375 13.84375 -4.980469 C 13.84375 -7.515625 12.445312 -8.867188 10.3125 -9.742188 L 8.011719 -10.714844 C 6.519531 -11.308594 5.285156 -11.757812 5.285156 -13.015625 C 5.285156 -14.175781 6.257812 -14.863281 7.800781 -14.863281 C 9.246094 -14.863281 10.40625 -14.34375 11.523438 -13.417969 L 13.300781 -15.625 C 11.878906 -17.070312 9.839844 -17.875 7.800781 -17.875 C 4.242188 -17.875 1.730469 -15.671875 1.730469 -12.800781 C 1.730469 -10.242188 3.507812 -8.820312 5.285156 -8.085938 L 7.632812 -7.089844 C 9.199219 -6.425781 10.265625 -6.023438 10.265625 -4.71875 C 10.265625 -3.484375 9.292969 -2.703125 7.46875 -2.703125 C 5.925781 -2.703125 4.265625 -3.484375 3.011719 -4.648438 L 0.996094 -2.226562 C 2.703125 -0.59375 5.050781 0.332031 7.398438 0.332031 Z M 7.398438 0.332031 "/></g></g></g><g fill="#000000" fill-opacity="1"><g transform="translate(54.021399, 29.634144)"><g><path d="M 2.15625 0 L 13.179688 0 L 13.179688 -2.941406 L 5.667969 -2.941406 L 5.667969 -7.632812 L 11.828125 -7.632812 L 11.828125 -10.574219 L 5.667969 -10.574219 L 5.667969 -14.628906 L 12.921875 -14.628906 L 12.921875 -17.566406 L 2.15625 -17.566406 Z M 2.15625 0 "/></g></g></g><g fill="#000000" fill-opacity="1"><g transform="translate(68.601426, 29.634144)"><g/></g></g><g fill="#000000" fill-opacity="1"><g transform="translate(73.982992, 29.634144)"><g><path d="M 5.640625 0 L 9.152344 0 L 9.152344 -14.628906 L 14.128906 -14.628906 L 14.128906 -17.566406 L 0.710938 -17.566406 L 0.710938 -14.628906 L 5.640625 -14.628906 Z M 5.640625 0 "/></g></g></g><g fill="#000000" fill-opacity="1"><g transform="translate(88.800099, 29.634144)"><g><path d="M 1.871094 0 L 5.359375 0 L 5.359375 -7.917969 C 6.09375 -9.839844 7.347656 -10.527344 8.390625 -10.527344 C 8.9375 -10.527344 9.316406 -10.453125 9.792969 -10.3125 L 10.382812 -13.324219 C 9.980469 -13.488281 9.554688 -13.609375 8.820312 -13.609375 C 7.445312 -13.609375 6.023438 -12.660156 5.050781 -10.929688 L 4.980469 -10.929688 L 4.71875 -13.277344 L 1.871094 -13.277344 Z M 1.871094 0 "/></g></g></g><g fill="#000000" fill-opacity="1"><g transform="translate(99.136508, 29.634144)"><g><path d="M 5.144531 0.332031 C 6.660156 0.332031 7.988281 -0.425781 9.152344 -1.421875 L 9.246094 -1.421875 L 9.484375 0 L 12.328125 0 L 12.328125 -7.753906 C 12.328125 -11.59375 10.597656 -13.609375 7.230469 -13.609375 C 5.144531 -13.609375 3.246094 -12.824219 1.683594 -11.855469 L 2.941406 -9.554688 C 4.171875 -10.265625 5.359375 -10.808594 6.589844 -10.808594 C 8.226562 -10.808594 8.796875 -9.816406 8.867188 -8.511719 C 3.507812 -7.941406 1.210938 -6.449219 1.210938 -3.601562 C 1.210938 -1.351562 2.773438 0.332031 5.144531 0.332031 Z M 6.28125 -2.394531 C 5.261719 -2.394531 4.527344 -2.84375 4.527344 -3.886719 C 4.527344 -5.074219 5.617188 -5.972656 8.867188 -6.378906 L 8.867188 -3.699219 C 8.011719 -2.867188 7.277344 -2.394531 6.28125 -2.394531 Z M 6.28125 -2.394531 "/></g></g></g><g fill="#000000" fill-opacity="1"><g transform="translate(113.147555, 29.634144)"><g><path d="M 1.871094 0 L 5.359375 0 L 5.359375 -9.128906 C 6.328125 -10.097656 7.015625 -10.621094 8.109375 -10.621094 C 9.410156 -10.621094 9.980469 -9.910156 9.980469 -7.847656 L 9.980469 0 L 13.464844 0 L 13.464844 -8.273438 C 13.464844 -11.617188 12.234375 -13.609375 9.363281 -13.609375 C 7.5625 -13.609375 6.210938 -12.660156 5.050781 -11.523438 L 4.980469 -11.523438 L 4.71875 -13.277344 L 1.871094 -13.277344 Z M 1.871094 0 "/></g></g></g><g fill="#000000" fill-opacity="1"><g transform="translate(128.343973, 29.634144)"><g><path d="M 5.667969 0.332031 C 9.128906 0.332031 10.953125 -1.539062 10.953125 -3.863281 C 10.953125 -6.328125 9.007812 -7.207031 7.253906 -7.871094 C 5.855469 -8.390625 4.621094 -8.746094 4.621094 -9.71875 C 4.621094 -10.480469 5.191406 -11 6.402344 -11 C 7.371094 -11 8.296875 -10.550781 9.246094 -9.863281 L 10.808594 -11.972656 C 9.71875 -12.800781 8.226562 -13.609375 6.304688 -13.609375 C 3.273438 -13.609375 1.351562 -11.925781 1.351562 -9.554688 C 1.351562 -7.324219 3.222656 -6.304688 4.90625 -5.667969 C 6.304688 -5.121094 7.679688 -4.671875 7.679688 -3.675781 C 7.679688 -2.84375 7.089844 -2.277344 5.761719 -2.277344 C 4.527344 -2.277344 3.390625 -2.796875 2.203125 -3.722656 L 0.617188 -1.539062 C 1.945312 -0.449219 3.886719 0.332031 5.667969 0.332031 Z M 5.667969 0.332031 "/></g></g></g><g fill="#000000" fill-opacity="1"><g transform="translate(140.079114, 29.634144)"><g><path d="M 1.871094 0 L 5.359375 0 L 5.359375 -13.277344 L 1.871094 -13.277344 Z M 3.628906 -15.410156 C 4.8125 -15.410156 5.640625 -16.167969 5.640625 -17.328125 C 5.640625 -18.46875 4.8125 -19.226562 3.628906 -19.226562 C 2.417969 -19.226562 1.589844 -18.46875 1.589844 -17.328125 C 1.589844 -16.167969 2.417969 -15.410156 3.628906 -15.410156 Z M 3.628906 -15.410156 "/></g></g></g><g fill="#000000" fill-opacity="1"><g transform="translate(147.286158, 29.634144)"><g><path d="M 6.734375 0.332031 C 7.894531 0.332031 8.820312 0.0703125 9.53125 -0.164062 L 8.960938 -2.703125 C 8.605469 -2.558594 8.085938 -2.417969 7.65625 -2.417969 C 6.472656 -2.417969 5.855469 -3.128906 5.855469 -4.648438 L 5.855469 -10.527344 L 9.128906 -10.527344 L 9.128906 -13.277344 L 5.855469 -13.277344 L 5.855469 -16.855469 L 2.964844 -16.855469 L 2.558594 -13.277344 L 0.496094 -13.109375 L 0.496094 -10.527344 L 2.371094 -10.527344 L 2.371094 -4.648438 C 2.371094 -1.683594 3.578125 0.332031 6.734375 0.332031 Z M 6.734375 0.332031 "/></g></g></g><g fill="#000000" fill-opacity="1"><g transform="translate(157.243255, 29.634144)"><g/></g></g><g fill="#000000" fill-opacity="1"><g transform="translate(162.624821, 29.634144)"><g><path d="M 2.15625 0 L 5.308594 0 L 5.308594 -7.324219 C 5.308594 -8.984375 5.027344 -11.425781 4.859375 -13.085938 L 4.953125 -13.085938 L 6.355469 -8.960938 L 9.078125 -1.589844 L 11.09375 -1.589844 L 13.796875 -8.960938 L 15.21875 -13.085938 L 15.339844 -13.085938 C 15.148438 -11.425781 14.886719 -8.984375 14.886719 -7.324219 L 14.886719 0 L 18.089844 0 L 18.089844 -17.566406 L 14.199219 -17.566406 L 11.285156 -9.339844 C 10.90625 -8.25 10.597656 -7.089844 10.21875 -5.972656 L 10.097656 -5.972656 C 9.742188 -7.089844 9.410156 -8.25 9.03125 -9.339844 L 6.046875 -17.566406 L 2.15625 -17.566406 Z M 2.15625 0 "/></g></g></g><g fill="#000000" fill-opacity="1"><g transform="translate(182.870905, 29.634144)"><g><path d="M 5.144531 0.332031 C 6.660156 0.332031 7.988281 -0.425781 9.152344 -1.421875 L 9.246094 -1.421875 L 9.484375 0 L 12.328125 0 L 12.328125 -7.753906 C 12.328125 -11.59375 10.597656 -13.609375 7.230469 -13.609375 C 5.144531 -13.609375 3.246094 -12.824219 1.683594 -11.855469 L 2.941406 -9.554688 C 4.171875 -10.265625 5.359375 -10.808594 6.589844 -10.808594 C 8.226562 -10.808594 8.796875 -9.816406 8.867188 -8.511719 C 3.507812 -7.941406 1.210938 -6.449219 1.210938 -3.601562 C 1.210938 -1.351562 2.773438 0.332031 5.144531 0.332031 Z M 6.28125 -2.394531 C 5.261719 -2.394531 4.527344 -2.84375 4.527344 -3.886719 C 4.527344 -5.074219 5.617188 -5.972656 8.867188 -6.378906 L 8.867188 -3.699219 C 8.011719 -2.867188 7.277344 -2.394531 6.28125 -2.394531 Z M 6.28125 -2.394531 "/></g></g></g><g fill="#000000" fill-opacity="1"><g transform="translate(196.881953, 29.634144)"><g><path d="M 1.871094 0 L 5.359375 0 L 5.359375 -9.128906 C 6.328125 -10.097656 7.015625 -10.621094 8.109375 -10.621094 C 9.410156 -10.621094 9.980469 -9.910156 9.980469 -7.847656 L 9.980469 0 L 13.464844 0 L 13.464844 -8.273438 C 13.464844 -11.617188 12.234375 -13.609375 9.363281 -13.609375 C 7.5625 -13.609375 6.210938 -12.660156 5.050781 -11.523438 L 4.980469 -11.523438 L 4.71875 -13.277344 L 1.871094 -13.277344 Z M 1.871094 0 "/></g></g></g><g fill="#000000" fill-opacity="1"><g transform="translate(212.078382, 29.634144)"><g><path d="M 5.144531 0.332031 C 6.660156 0.332031 7.988281 -0.425781 9.152344 -1.421875 L 9.246094 -1.421875 L 9.484375 0 L 12.328125 0 L 12.328125 -7.753906 C 12.328125 -11.59375 10.597656 -13.609375 7.230469 -13.609375 C 5.144531 -13.609375 3.246094 -12.824219 1.683594 -11.855469 L 2.941406 -9.554688 C 4.171875 -10.265625 5.359375 -10.808594 6.589844 -10.808594 C 8.226562 -10.808594 8.796875 -9.816406 8.867188 -8.511719 C 3.507812 -7.941406 1.210938 -6.449219 1.210938 -3.601562 C 1.210938 -1.351562 2.773438 0.332031 5.144531 0.332031 Z M 6.28125 -2.394531 C 5.261719 -2.394531 4.527344 -2.84375 4.527344 -3.886719 C 4.527344 -5.074219 5.617188 -5.972656 8.867188 -6.378906 L 8.867188 -3.699219 C 8.011719 -2.867188 7.277344 -2.394531 6.28125 -2.394531 Z M 6.28125 -2.394531 "/></g></g></g><g fill="#000000" fill-opacity="1"><g transform="translate(226.089441, 29.634144)"><g><path d="M 6.542969 5.761719 C 10.976562 5.761719 13.773438 3.722656 13.773438 1.042969 C 13.773438 -1.28125 12.019531 -2.277344 8.820312 -2.277344 L 6.566406 -2.277344 C 5.003906 -2.277344 4.480469 -2.65625 4.480469 -3.367188 C 4.480469 -3.910156 4.695312 -4.195312 5.050781 -4.503906 C 5.617188 -4.316406 6.234375 -4.195312 6.757812 -4.195312 C 9.601562 -4.195312 11.878906 -5.714844 11.878906 -8.699219 C 11.878906 -9.53125 11.617188 -10.265625 11.285156 -10.714844 L 13.535156 -10.714844 L 13.535156 -13.277344 L 8.746094 -13.277344 C 8.203125 -13.464844 7.492188 -13.609375 6.757812 -13.609375 C 3.933594 -13.609375 1.398438 -11.925781 1.398438 -8.820312 C 1.398438 -7.253906 2.253906 -5.996094 3.175781 -5.335938 L 3.175781 -5.238281 C 2.371094 -4.671875 1.683594 -3.746094 1.683594 -2.75 C 1.683594 -1.660156 2.203125 -0.972656 2.890625 -0.523438 L 2.890625 -0.402344 C 1.683594 0.285156 0.996094 1.234375 0.996094 2.347656 C 0.996094 4.695312 3.414062 5.761719 6.542969 5.761719 Z M 6.757812 -6.355469 C 5.59375 -6.355469 4.671875 -7.230469 4.671875 -8.820312 C 4.671875 -10.359375 5.570312 -11.238281 6.757812 -11.238281 C 7.941406 -11.238281 8.84375 -10.359375 8.84375 -8.820312 C 8.84375 -7.230469 7.917969 -6.355469 6.757812 -6.355469 Z M 7.066406 3.554688 C 5.144531 3.554688 3.910156 2.914062 3.910156 1.800781 C 3.910156 1.257812 4.171875 0.734375 4.765625 0.261719 C 5.238281 0.378906 5.808594 0.449219 6.613281 0.449219 L 8.226562 0.449219 C 9.648438 0.449219 10.429688 0.6875 10.429688 1.636719 C 10.429688 2.679688 9.054688 3.554688 7.066406 3.554688 Z M 7.066406 3.554688 "/></g></g></g><g fill="#000000" fill-opacity="1"><g transform="translate(240.242733, 29.634144)"><g><path d="M 7.65625 0.332031 C 9.292969 0.332031 10.976562 -0.238281 12.28125 -1.136719 L 11.09375 -3.273438 C 10.148438 -2.679688 9.199219 -2.347656 8.109375 -2.347656 C 6.140625 -2.347656 4.71875 -3.484375 4.433594 -5.667969 L 12.613281 -5.667969 C 12.707031 -5.972656 12.777344 -6.613281 12.777344 -7.277344 C 12.777344 -10.929688 10.882812 -13.609375 7.230469 -13.609375 C 4.078125 -13.609375 1.042969 -10.929688 1.042969 -6.636719 C 1.042969 -2.253906 3.933594 0.332031 7.65625 0.332031 Z M 4.386719 -7.988281 C 4.648438 -9.910156 5.878906 -10.90625 7.277344 -10.90625 C 8.984375 -10.90625 9.792969 -9.765625 9.792969 -7.988281 Z M 4.386719 -7.988281 "/></g></g></g><g fill="#000000" fill-opacity="1"><g transform="translate(254.016714, 29.634144)"><g><path d="M 1.871094 0 L 5.359375 0 L 5.359375 -7.917969 C 6.09375 -9.839844 7.347656 -10.527344 8.390625 -10.527344 C 8.9375 -10.527344 9.316406 -10.453125 9.792969 -10.3125 L 10.382812 -13.324219 C 9.980469 -13.488281 9.554688 -13.609375 8.820312 -13.609375 C 7.445312 -13.609375 6.023438 -12.660156 5.050781 -10.929688 L 4.980469 -10.929688 L 4.71875 -13.277344 L 1.871094 -13.277344 Z M 1.871094 0 "/></g></g></g></svg>